<svg width="52" height="52" fill="none" xmlns="http://www.w3.org/2000/svg"><path d="M31.2 22.533h-.867V20.8A4.335 4.335 0 0026 16.467a4.335 4.335 0 00-4.333 4.333v1.733H20.8c-.958 0-1.733.776-1.733 1.734v8.666c0 .958.775 1.734 1.733 1.734h10.4c.958 0 1.733-.776 1.733-1.734v-8.666c0-.958-.775-1.734-1.733-1.734zm-5.2 7.8a1.733 1.733 0 11-.001-3.465A1.733 1.733 0 0126 30.333zm2.687-7.8h-5.374V20.8A2.689 2.689 0 0126 18.113a2.689 2.689 0 012.687 2.687v1.733zM26.003 0l.645 1.996h2.093l-1.692 1.236.644 1.998-1.69-1.234L24.31 5.23l.646-1.998-1.692-1.236h2.094L26.003 0zM14.237 3.165l.647 1.999h2.091l-1.692 1.234.647 2-1.693-1.236-1.692 1.234.647-1.998L11.5 5.162l2.09.002.647-1.999zM3.151 13.618l2.092.004.65-1.996.643 2 2.09.005-1.695 1.232.642 1.998-1.688-1.238-1.696 1.23.65-1.997-1.688-1.238zM0 25.428l2.091.01.657-1.994.636 2 2.091.011-1.696 1.226.636 2.002-1.686-1.242-1.698 1.225.655-1.996L0 25.428zM4.085 40.173l.657-1.994-1.686-1.244 2.091.01.655-1.994.638 2 2.091.011-1.698 1.228.636 2-1.686-1.242-1.698 1.225zM12.707 48.833l.647-1.999-1.692-1.236h2.091l.646-1.996.647 1.998h2.091l-1.692 1.234.647 1.998-1.692-1.236-1.693 1.237zM24.473 52l.645-1.998-1.692-1.234 2.09-.002.645-1.999.649 1.999 2.09-.002L27.21 50l.648 1.996-1.692-1.232L24.473 52zM39.299 48.83l-1.694-1.234-1.69 1.239.644-2-1.694-1.233 2.093-.002.645-1.998.646 1.996 2.093-.002-1.692 1.236.649 1.998zM47.897 40.19l-1.684-1.244-1.7 1.223.658-1.994-1.686-1.244 2.092.012.659-1.994.634 2.003 2.09.012-1.697 1.224.634 2.002zM52 25.417l-1.682 1.251.666 1.992-1.705-1.22-1.68 1.25.628-2.003-1.702-1.22 2.09-.018.63-2.005.664 1.992L52 25.417zM48.85 13.612l-1.685 1.242.657 1.996-1.699-1.227-1.685 1.242.636-2-1.699-1.226 2.092-.01.636-2.003.657 1.996 2.09-.01zM37.769 3.165l.644 1.999 2.092.004L38.812 6.4l.643 1.998-1.69-1.236-1.694 1.232.648-1.996-1.69-1.239 2.091.005.649-1.999z" fill="#002aff"/></svg>