<?xml version="1.0" encoding="UTF-8"?>
<svg id="Laag_2" data-name="Laag 2" xmlns="http://www.w3.org/2000/svg" viewBox="0 0 153.16 186.31">
  <defs>
    <style>
      .cls-1 {
        fill: #0071bc;
      }

      .cls-2 {
        fill: #fff;
      }
    </style>
  </defs>
  <g id="Laag_1-2" data-name="Laag 1">
    <path class="cls-1" d="M151.84,89.65c-2.54-9.14-7.64-14.49-12.56-17.62-3.69-4.68-7.83-8.17-11.23-10.8-.34-.53-.68-1.05-1.02-1.58-.83-1.28-1.98-3.03-2.18-3.69-.81-2.66-2.17-5-3.93-6.93.61-5.71.36-11.4-.77-16.95C116.33,13.2,100.51,0,81.67,0c-4.03,0-8.06.61-12.01,1.82-4.02,1.23-7.76,3.02-11.21,5.35-4.89-2.73-10.38-4.19-16.15-4.19-4.71,0-9.37.98-13.87,2.91C14.02,12.07,6.48,26.15,8.77,42.64c.32,2.34.9,4.46,1.58,6.37-2.85,3.18-5.01,7.12-6.34,11.65-1.8,6.15-1.75,12.69.14,19.43,1,3.58,2.1,7.07,3.17,10.46-.32.56-.65,1.12-.98,1.68-.85,1.43-1.81,3.05-2.73,4.91C.1,104.2-.87,111.85.79,119.25c2.05,9.16,6.93,17.13,14.1,23.04.28.23,1.92,1.61,1.92,1.61l.88.59c.33.22.79.53,1.36.88l1.55,1.25s2.45,1.21,2.85,1.41c.12.18.23.35.36.52-.04.43-.06.86-.07,1.27-4.19,9.58-1.82,19.48,6.55,26.45,4.84,4.03,10.21,6.97,15.97,8.73,2.85.87,5.56,1.29,8.28,1.29,2.95,0,5.82-.51,8.56-1.52,6.62-2.44,11.35-7.7,12.9-14.24l1.02-1.01c4.55,3,9.52,5.97,15.48,8.08,3.13,1.11,6.43,1.84,9.79,2.15.73.07,1.47.1,2.21.1,4.75,0,11.79-1.45,18.32-8.36,3.48-3.68,6.22-6.91,8.6-10.15,4.62-6.28,9.04-12.54,12.25-20.23,3.98-9.49,5.95-18.62,5.98-27.74.85-1.55,1.54-3.18,2.05-4.85,1.88-6.08,1.91-12.44.12-18.9ZM75.53,127.26c-.18-.68-.36-1.37-.58-2.05.26.72.56,1.44.88,2.15-.1-.03-.2-.06-.3-.1ZM74,122.27c.15.52.31,1.03.47,1.55-.17-.49-.35-.99-.55-1.48l.07-.07Z"/>
    <path class="cls-2" d="M143.11,92.02c-1.21-4.28-3.53-7.69-7.88-9.44-.26-.1-.52-.32-.67-.55-2.87-4.39-6.74-7.81-10.88-10.96-1.48-1.12-2.77-2.34-3.77-3.92-2.19-3.46-4.72-6.72-5.95-10.7-.07-.22-.33-.57-.45-.55-.25.04-.54.24-.69.46-.5.75-.96,1.54-1.5,2.44-1.87-3.65-2.91-7.33-3.77-11.06-.05-.23.08-.54.19-.77.2-.42.57-.79.65-1.22,1.11-5.5,1.17-11.01.04-16.53-3-14.6-16.92-22.93-31.29-18.59-7.32,2.21-12.6,7.04-16.69,13.26-.22.33-.42.66-.67,1.04-.73-1.2-1.37-2.31-2.07-3.37-5.47-8.23-14.58-11-23.42-7.26-8.78,3.71-11.5,11.84-10.34,20.09.52,3.72,2.54,6.95,4.23,10.26.42.83.88,1.67,1.15,2.56.55,1.81-.87,5.04-2.37,5.36-4.84,1.03-7.42,4.24-8.74,8.68-1.07,3.6-.8,7.24.21,10.77,1.38,4.86,2.97,9.67,4.52,14.49.57,1.79.65,3.57-.08,5.28-.68,1.62-1.53,3.17-2.39,4.71-1.26,2.26-2.72,4.43-3.88,6.74-1.84,3.66-2.5,7.55-1.59,11.58,1.33,5.86,4.32,10.75,9.04,14.59.47.38.95.78,1.46,1.2.39.26.77.52,1.18.75.66.37,1.23.83,1.81,1.29,2.18,1.06,4.32,2.11,6.42,3.17.31.16.55.58.67.92,1.11,3.09,3.15,5.35,6.15,6.76,2.36,1.1,3.38.85,5-1.19.12-.15.18-.33.19-.34,1.68.82,3.14,1.64,4.68,2.26,1.45.58,2.81.26,3.97-.86,1.99-1.92,3.7-4.01,4.4-6.76.14.69.24,1.36.25,2.02.07,5.46-1.26,10.6-3.54,15.55-.3.65-.7.56-1.19.45-4.11-.9-8.21-1.81-12.39-2.73.05-.47.2-.97.12-1.42-.23-1.34-.51-2.68-.87-4-.08-.29-.59-.47-.91-.7-.18.3-.47.59-.51.91-.22,1.63-.37,3.27-.56,4.91-.1.87,0,1.58,1.48,1.45-.87,1.64-1.56,3.08-2.38,4.45-2.02,3.38-1.72,5.8,1.35,8.31,3.24,2.66,6.86,4.69,10.92,5.92,2.15.65,4.33.88,6.5.09,1.44-.52,2.3-1.48,2.48-2.63,0-.06.01-.11.02-.17.07-.7-.11-1.46-.56-2.25-.55-.96-1.4-1.76-2.17-2.57-.46-.49-1.05-.87-1.57-1.3-.81-.66-1.15-1.48-.83-2.5.37-1.18.77-2.35,1.14-3.53.21-.68.52-1.12,1.35-1.28.56-.11,1.13-.61,1.52-1.08,1.96-2.37,3.07-5.17,3.8-8.09.72-2.86,1.25-5.76,1.88-8.71.97.24,1.27.82,1.17,1.76-.1.89-.02,1.8-.07,2.7-.21,3.89-.32,7.79-.7,11.67-.33,3.43-1.22,6.72-2.58,9.88.62-.94,1.32-1.81,2.11-2.58,2.27-7.09,2.05-14.53,2.36-22,.44.32.7.48.92.67.91.8,1.88,1.54,2.7,2.42,4.97,5.28,10.58,9.8,16.62,13.82,4.7,3.13,9.47,6.15,14.85,8.03,1.98.69,4.1,1.14,6.2,1.34,2.91.27,5.27-1.27,7.14-3.22,2.79-2.9,5.48-5.93,7.89-9.15,4.21-5.64,8.36-11.34,11.13-17.87,3.65-8.59,5.64-17.47,4.9-26.83-.2-2.57-.33-2.67-2.91-3.1-6-.99-11.97-.64-17.93.38-6.49,1.11-12.44,3.38-17.38,7.82-.06.05-.17.04-.3.07.84-4.82,2.19-9.38,4.7-13.58,3.41-5.7,7.55-10.71,13.46-14.07,3.52-2,7.29-3.14,11.4-3.07,2.11.03,3.77.58,4.41,2.82.28.97.88,1.85,1.1,2.83.82,3.57,1.58,7.16,2.29,10.76.33,1.65.43,3.35.75,5,.09.48.57,1.21.91,1.23.47.03,1.13-.4,1.42-.82.54-.8.99-1.7,1.27-2.61,1.04-3.32.92-6.67-.02-9.98ZM41.44,151.81c.09-1.21.18-2.41.28-3.62.1,0,.2,0,.29.01v3.63l-.57-.03ZM55.02,158.54c-1.05,3.11-.75,3.94,1.75,6.03.94.78,1.84,1.71,2.48,2.74.95,1.54.36,2.82-1.35,3.47-1.71.65-3.45.53-5.16.08-4.22-1.11-7.96-3.18-11.26-5.94-2.68-2.24-2.8-4.02-1-7,.91-1.5,1.64-3.11,2.6-4.96,4.16.94,8.44,1.91,12.85,2.91-.3.87-.62,1.77-.92,2.67ZM112.44,59.04c.18-.36.45-.68.67-1.01,1.7,2.93,3.36,5.77,5.07,8.72-2.53-1.86-4.63-3.98-6.09-6.66-.12-.23.18-.72.35-1.06ZM107.72,52.55c.74,2.16,1.59,4.28,2.49,6.38.28.66.21,1.06-.24,1.59-2.16,2.52-4.7,4.6-7.49,6.36-4.93,3.11-9.93,6.1-14.86,9.21-4.36,2.75-8.53,5.77-12.1,9.51-3.95,4.14-6.91,8.83-8.03,14.5-.03.18-.14.34-.23.58-.03-7.94,2.78-15.3,4.08-22.92,2.78.36,4.46-2.14,3.6-5.59,2.53,1.23,4.86.41,7.15-.49,4.99-1.97,9.56-4.58,13.34-8.42,1.89-1.91,2.92-4.09,2.99-6.82.09-3.57,2.02-6.37,4.36-8.91.17-.19.51-.3.78-.31.87-.04,1.74-.01,2.67-.01.5,1.84.9,3.62,1.49,5.34ZM71.85,61.41c-.79.09-1.57.3-2.36.37-1.15.1-1.58-.36-1.51-1.48.02-.3.03-.6-.02-.9-.2-1.44-.42-1.57-1.88-1.38-.97.13-1.97.23-2.95.16-1.18-.08-1.45-.58-1.02-1.67.36-.91.86-1.76,1.18-2.68.43-1.23.84-2.48,1.11-3.76.44-2.05,0-3.8-1.85-5.17-1.45-1.08-1.83-3.8-.98-5.41,1.36-2.6,1.4-5.32.71-8.25,3.19-.9,5.86-2.62,8.28-5.01,1.08,1.19,2.15,2.29,3.13,3.46,3.07,3.67,5.71,7.59,6.74,12.34.48,2.19.47,2.19,2.58,1.34.46-.18.9-.39,1.34-.62,1.39-.71,2.57-1.46,2.03-3.41-.22-.8.07-1.79.31-2.64.72-2.53,2.54-3.84,4.9-3.65,2.33.19,3.69,1.63,3.92,4.5-.25-.32-.46-.69-.75-.96-2.13-1.96-5.23-1.34-6.16,1.39-.42,1.22-.48,2.67-.27,3.95.23,1.44.82,2.87,1.5,4.19.65,1.27,1.87,1.99,3.38,1.86,1.64-.14,2.74-1.09,3.31-2.56.36-.93.52-1.94.82-3.15,1.03,2.05,2.23,3.78,4.53,4.5-.45.56-.82,1.02-1.2,1.48-2.12,2.63-3.41,5.57-3.44,8.97-.02,1.8-.81,3.24-1.97,4.54-3.54,3.99-8.03,6.59-12.92,8.6-1.25.52-2.57.96-3.89,1.23-2.52.51-4.16-.8-4.32-3.31-.05-.88.27-2.01-.18-2.59-.43-.55-1.62-.52-2.47-.76-.1-.03-.17-.13-.41-.32.56-.69,1.13-1.29,1.57-1.97.2-.3.15-.75.22-1.13-.35-.05-.71-.17-1.05-.13ZM55.2,47.08c.25,2.1.35,4.16-1.25,5.95-1.97,2.19-4.16,4.04-7.16,4.46-1.2.17-2.65-.07-3.71-.62-2.31-1.2-4.48-2.67-6.65-4.12-2.26-1.51-3.63-3.58-3.72-6.41,2.71-.95,3.62-2.57,3.1-5.38-.21-1.14-.53-2.26-.71-3.41-.26-1.63.28-2.72,1.84-3.34,3.78-1.49,6.87-3.78,9.1-7.25,3.35,3.48,7.38,5.27,12.23,5.27.51,2.59,1.04,5.18,1.5,7.79.05.28-.25.69-.5.95-.93.98-1.9,1.94-2.87,2.89-.93.9-1.35,1.91-1.19,3.23ZM59.62,33.47c-.24-1.57-.18-1.58,1.66-1.75.59,2.34.59,4.62-.72,6.85-.32-1.7-.68-3.39-.94-5.09ZM96.32,41.72c-.23,1.09-.38,2.22-.73,3.27-.37,1.09-1.21,1.85-2.42,1.96-1.2.11-2-.6-2.56-1.56-1.03-1.77-1.55-3.68-1.32-5.71.08-.71.37-1.47.77-2.07.67-1.02,2-1.34,3.02-.9,1.6.69,3.22,3.28,3.25,5ZM73.16,76.3c-.26.24-.78.47-1.05.37-.3-.11-.52-.59-.63-.95-.11-.38-.03-.82-.07-1.23-.15-1.72-.7-3.28-1.94-4.63,1.85.16,3.35.91,4.29,2.52.73,1.23.47,2.9-.6,3.92ZM104.29,45.97c.43-.4.86-.8,1.45-1.34.12.55.2.95.32,1.5-.6.03-1.12.06-1.65.09-.04-.09-.08-.17-.12-.26ZM60.76,25.59c5.11-8.49,12.13-14.13,22.51-15.02,10.59-.91,22.13,6.73,24.27,19.69.81,4.86.82,9.69-.05,14.53-.06.31-.17.62-.32,1.19-.19-.89-.34-1.5-.46-2.12-.17-.85-.57-1.01-1.23-.42-.73.66-1.41,1.37-2.19,1.97-.31.24-.92.4-1.24.26-.75-.32-1.6-.71-2.06-1.32-1.37-1.82-2.71-3.68-2.97-6.07-.11-1.02-.47-2.04-.83-3.02-.78-2.1-2.42-3.1-4.62-3.24-2.16-.14-3.84.72-5.03,2.5-1.02,1.53-1.41,3.26-1.19,5.04.13,1.04-.24,1.64-1.09,2.07-.8.4-1.62.76-2.55,1.19-.63-3.68-2.09-6.89-4.19-9.76-1.89-2.57-4.06-4.94-6.09-7.41-.58-.71-1.05-.73-1.74-.05-2.14,2.12-4.59,3.78-7.62,4.6-.52-1.24-1.05-2.43-1.5-3.64-.1-.26.02-.68.18-.94ZM59.77,28.09c.1-.01.21-.02.31-.04.3.79.6,1.58.93,2.46-.51.14-.93.26-1.58.44.13-1.07.24-1.97.35-2.87ZM27.89,36.81c-.38,1.09-.47,2.28-.7,3.48-1.1-2.29-2.22-4.63-2.37-7.23-.31-5.12.37-10.13,4.26-13.87,7.32-7.04,17.23-8.09,25.34.13,1.82,1.85,3.05,4.26,4.52,6.43.17.25.22.64.17.95-.2,1.29-.43,2.58-.73,3.85-.06.24-.49.58-.73.57-4.33-.11-7.95-1.76-10.8-4.99-.22-.25-.2-.69-.32-1.03-.2-.55-.31-1.17-.67-1.6-.2-.25-.81-.16-1.24-.23-.03.37-.23.87-.06,1.09,1.18,1.47.31,2.53-.61,3.64-1.79,2.17-3.99,3.77-6.6,4.85-3.12,1.29-3.85,2.72-3.14,6,.23,1.06.5,2.12.63,3.19.19,1.54-.64,2.69-2.11,2.99.25-1.5.53-2.96.71-4.43.12-.96.15-1.95.09-2.91-.1-1.6-.86-2.53-2.07-2.74-1.34-.23-3.13.59-3.57,1.86ZM28.89,37.16c.53-.93,1.44-1.26,2.43-1.12.99.14,1.18,1.05,1.12,1.84-.15,2.29-.41,4.58-.63,6.96-2.62-1.15-4.16-5.52-2.92-7.68ZM27.51,54.26c.26-.38.87-.69,1.34-.72,1.48-.1,2.83.41,4.05,1.24,4.44,2.99,6.52,8.52,5.33,14.19-.14.65-.32,1.29-.52,2.08-3.84-2.56-7.89-2.77-12.18-1.99-.59-2.14-.74-4.28-.64-6.44.14-3,.88-5.85,2.61-8.36ZM20.97,75.18c.06.66.16,1.32.17,1.99-1.74-5.01-3.31-10.04-1.95-15.42.69-2.73,2.04-5.08,4.46-6.7.77-.51,1.65-.85,2.48-1.27-2.47,5.87-2.6,6.97-1.78,15.53-.23.08-.46.18-.71.26-2.61.87-2.63.86-2.77,3.59-.03.67.03,1.35.09,2.02ZM24.43,70.52c1.19,2.55,2.29,5.01,3.49,7.42.58,1.16.9,1.11,1.57,0,1.65-2.72,4.41-3.28,7.26-3.46,1.46-.09,2.96.12,4.43.29,5.78.65,10.82-.96,15.12-4.8,1.69-1.51,3.53-2.62,5.9-2.49.55.03,1.14.18,1.61.45,2.04,1.14,3.66,4.66,3.23,6.91-.25,1.3-1.23,2.32-2.71,2.52-1.08.14-2.22.2-3.27-.01-2.54-.52-4.69.15-6.52,1.84-4.07,3.75-9,5.79-14.29,7.09-3.11.76-6.25,1.25-9.48.86-1.59-.19-2.92-.85-4.01-1.95-3.45-3.5-4.94-7.74-4.77-12.57.05-1.51.24-1.6,2.44-2.1ZM26.56,130.04c-6.58-5.03-10.94-11.24-10.79-19.83.05-2.79,1.06-5.36,2.43-7.77,1.29-2.29,2.75-4.49,4.04-6.78.73-1.3,1.35-2.69,1.84-4.09.6-1.7.54-3.46-.04-5.19-.64-1.91-1.24-3.83-1.76-5.78.57.99,1.09,2.01,1.7,2.97,2.14,3.38,5.2,5.06,9.27,4.8,8.05-.51,15.45-2.76,21.64-8.1,1.83-1.58,3.78-2.4,6.26-1.82.94.22,1.97.16,2.95.07,2.75-.27,4.5-2.43,3.99-5.1-.26-1.41-.75-2.84-1.47-4.08-1.57-2.71-4.01-3.61-7-2.54-1.39.5-2.76,1.31-3.86,2.28-4.33,3.81-9.3,5.33-15.05,4.6-1.68-.21-3.41-.25-5.1-.13-2.74.21-5.17,1.17-7.07,3.76-1.04-2.48-1.96-4.68-3.04-7.25,1.86-.1,3.42-.3,4.97-.25,2.48.08,4.8.74,6.76,2.33.53.43,1.01.62,1.31-.2,2.08-5.76,1.31-12.66-3.76-17.05-1.65-1.42-3.5-2.36-5.93-2.47,1.85-2.34,2.32-4.74.71-7.39,1.9.92,1.89.92,2.18,2.66.38,2.25,1.51,4.12,3.38,5.42,2.51,1.74,5.12,3.36,7.76,4.92,1.58.93,3.36.88,5.09.35,3.33-1.03,5.85-3.11,7.7-6,1.03-1.62.82-3.41.6-5.14-.15-1.14.18-1.95.96-2.71.89-.87,1.74-1.77,2.75-2.8.13.48.24.74.27,1.01.17,1.33.72,2.45,1.83,3.24,1.11.79,1.62,1.86,1.35,3.12-.38,1.74-.94,3.45-1.48,5.15-.26.82-.73,1.57-.98,2.39-.41,1.37.15,2.35,1.6,2.52,1.34.16,2.71.03,4.22.03.47.9-.58,2.51.83,3.11,1.05.45,2.29.46,3.45.67-.29.6-1.62,1.34-.71,2.33.61.65,1.73.84,2.68,1.26.06,1.02.13,2.24.2,3.38-1-.36-2.07-.86-3.2-1.11-.52-.11-1.15.29-1.74.45.18.57.31,1.16.55,1.7.4.87.94,1.69,1.29,2.58.3.77.31,1.47-.52,2.15-.76.62-1.12,1.69-1.83,2.39-1.91,1.89-4.44,2.31-6.99,2.66-.9.12-1.79.32-2.68.49.18.84.41,1.67.55,2.51,1.31,7.79-.2,14.83-5.82,20.72-1.39,1.46-3.07,2.55-5.08,3.1-.65.17-1.1.08-1.64-.34-5.15-3.96-11.01-5.95-17.54-5.96-1.01,0-2.05.2-3.01.53-1.28.44-1.5,1.55-.49,2.45.69.62,1.52,1.15,2.37,1.51,5.87,2.52,11.98,3.79,18.43,3.25.35-.03.83.15,1.07.4.85.9,1.78,1.79,2.4,2.84,1.8,3.03,3.47,6.15,5.33,9.48-2.76-.6-5.26-1.13-7.75-1.67-1.34-.29-2.67-.58-4.01-.86-1.93-.4-3.11-.03-3.68,1.15-.63,1.3-.12,2.84,1.3,3.94.11.09.22.18.49.39-.59.24-1.06.57-1.54.59-4.64.19-8.74,1.78-12.43,4.5-.12.09-.26.15-.5.28ZM45.03,107.86c-5.02,1.12-17.54-1.97-19.51-4.94.69-.19,1.31-.49,1.95-.52,6.48-.36,12.28,1.53,17.49,5.28.05.03.05.12.07.19ZM35.18,134.99c-2.71-1.45-5.13-2.75-7.64-4.1,2.87-2.52,7.11-4.24,10.83-4.42-2.28,2.32-3.52,4.94-3.18,8.52ZM42.31,142.57c-2.7-1.24-4.61-3.21-5.59-5.98.09-.13.19-.26.28-.4,3.05,1.62,6.11,3.24,9.16,4.86-1.18,2.16-1.89,2.42-3.85,1.52ZM36.88,135.24c-.3-.15-.59-.55-.64-.87-.42-2.69,1.5-6.55,3.89-7.91.25-.14.57-.21.86-.21,4.57.02,9,.71,13.08,2.9,1.9,1.02,3.56,2.31,4.4,4.37.09.23.12.48.22.88-5.42-.76-9.17,1.64-11.72,5.7-3.5-1.68-6.81-3.24-10.1-4.85ZM58.26,137.96c-1.15,1.69-2.42,3.31-3.75,4.87-.72.84-1.81.78-2.75.35-1.37-.62-2.68-1.37-4.08-2.09,2.82-4.67,6.56-6.5,11.27-5.51-.22.81-.25,1.74-.69,2.39ZM51.68,126.96c-2.92-.87-5.94-1.38-8.49-1.95.88-.19,2.24-.46,3.57-.81.32-.09.56-.48.84-.73-.34-.14-.71-.44-1.03-.4-1.16.15-2.31.37-3.46.63-1.39.32-2.77-.52-2.99-1.87-.18-1.15.39-1.87,1.59-1.72,1.58.2,3.13.58,4.69.91,2.71.58,5.41,1.16,8.11,1.78.33.08.79.26.91.51,1.35,2.83,2.65,5.68,3.77,8.64-1.99-2.5-4.57-4.1-7.52-4.98ZM57.93,154.56c2.52-5.9,3.84-12,3.2-18.61,1.11.39,2.02.72,3.06,1.09-1.08,6.24-1.76,12.53-6.26,17.53ZM64.35,135.9c-1.1-.35-2.04-.62-2.95-.96-.24-.09-.52-.37-.56-.6-.73-3.86-2.23-7.44-4.2-11.12,2.99.65,5.72,1.25,8.61,1.88-.3,3.59-.59,7.15-.9,10.8ZM58.45,122.58c-1.82-.27-2.94-1.07-3.69-2.77-.98-2.23-2.19-4.36-3.44-6.46-.97-1.63-2.16-3.13-3.22-4.64,7.78-3.26,10.86-9.74,11.94-17.53.42-3.04.25-6.05-.78-9.19,4.31-.49,8.49-1.02,10.9-5.16.08.05.16.09.25.14-.51,2.4-.87,4.84-1.54,7.2-2.42,8.41-3.04,16.99-2.93,25.68.06,4.67-.39,9.34-.61,14.16-2.39-.51-4.62-1.09-6.89-1.44ZM66.6,136.99c-1.04-.28-1.28-.71-1.17-1.61.34-2.93.53-5.88.78-8.82.03-.36.06-.72.26-1.07.48,3.8.28,7.6.14,11.5ZM67.19,112.42c.03-4.99.55-9.97,2.06-14.75,1.92-6.06,5.93-10.73,10.76-14.77,4.92-4.11,10.44-7.35,15.91-10.68,5.42-3.3,11.03-6.35,15.01-11.15,2.37,2.47,4.7,4.88,7,7.26-7.55,1.41-13.68,5.48-18.94,11.02-4.19,4.41-6.04,9.82-6.68,15.67-.88,8.07-.19,16.01,2.42,23.74.2.6.45,1.19.74,1.76.58,1.15.87,1.15,1.59.12.79-1.13,1.61-2.24,2.39-3.32-.31,6.25-.63,12.45-.94,18.65.03.01-.14-.04-.3-.13-9.29-4.9-18.99-8.71-29.29-10.96-.89-.2-1.21-.53-1.25-1.45-.12-3.67-.51-7.34-.49-11ZM102.01,114.67c3.2-3.04,6.95-5.22,11.19-6.5,7.93-2.4,15.99-3.14,24.22-1.81.99.16,1.31.58,1.39,1.51.89,10.09-1.25,19.63-5.65,28.66-4.13,8.49-9.71,16.1-16.03,23.13-4.72,5.25-7.85,5.83-14.51,3.3-6.11-2.33-11.49-5.92-16.81-9.62-4.9-3.4-9.38-7.27-13.51-11.54-1.25-1.3-2.73-2.38-4.07-3.6-.29-.27-.59-.71-.59-1.07.02-3.67.09-7.34.16-11.01,0-.11.05-.21.12-.49,3.41.94,6.86,1.72,10.19,2.83,6.73,2.24,13.29,4.92,19.54,8.28.94.51,1.32,1.13,1.42,2.18.17,1.59.56,3.16.88,4.74.07.36.24.71.39,1.05.74,1.63,1.91,2.45,3.07,2.16,1.06-.27,1.93-1.63,1.75-3.22-.11-1-.45-2.09-1.03-2.9-.77-1.08-1.78-2.08-2.87-2.84-1.01-.71-1.4-1.48-1.44-2.66-.24-6.39.21-12.73,1.12-19.05.08-.55.6-1.1,1.05-1.52ZM99.96,138.64c.18-.1.36-.21.54-.31,1.03,1.15,2.15,2.24,3.07,3.47.73.97.78,2.17.27,3.31-.38.85-1.04.99-1.69.32-.38-.39-.75-.89-.89-1.4-.49-1.78-.88-3.59-1.3-5.4ZM129.31,81.78c-5.52.35-10.31,2.53-14.44,6.01-7.86,6.62-12.75,14.95-14.41,25.05-.23,1.4-.59,2.64-1.65,3.69-.92.91-1.62,2.04-2.66,3.37-.63-2.26-1.28-4.24-1.72-6.26-1.61-7.44-2.03-14.91-.39-22.4,1.04-4.73,3.26-8.83,6.77-12.24,4.57-4.44,9.73-7.86,16.07-9.36,1.75-.42,3.1-.22,4.57.98,3.66,2.99,7.43,5.84,10.42,9.54.42.52.8,1.06,1.22,1.62-1.33,0-2.56-.07-3.78.01ZM140.58,104.34c-1.01-6.89-1.43-13.8-4.7-20.11,6.11,1.98,9.33,15.48,4.7,20.11Z"/>
  </g>
</svg>