<?xml version="1.0" encoding="UTF-8"?>
<svg id="Laag_2" data-name="Laag 2" xmlns="http://www.w3.org/2000/svg" viewBox="0 0 124.4 236.25">
  <defs>
    <style>
      .cls-1 {
        fill: #0d71b9;
      }

      .cls-2 {
        fill: #fff;
      }
    </style>
  </defs>
  <g id="Laag_1-2" data-name="Laag 1">
    <g>
      <path class="cls-1" d="M124,190.89c-.05-.46-.09-.87-.12-1.2-.27-3.23-.72-6.32-1.15-9.32-.7-4.85-1.36-9.43-1.11-13.62.08-1.3.32-2.77.56-4.34.5-3.13,1.12-7.02.78-11.4-.25-3.26-1.04-6.24-1.74-8.88-.42-1.59-.86-3.24-.97-4.28-.11-1-.05-3.69,0-5.84.11-4.98.22-10.05-.49-14.64l.09-.12c3.94-5.73,2.47-12.86-.24-24.01-.3-1.24-.72-2.95-.8-3.45-.18-1.12-.27-2.36-.37-3.68-.36-4.94-.85-11.7-6.58-18.52-6.37-7.6-14.56-9.04-19.98-10-.06-.01-.13-.02-.19-.03.82-3.06,1.06-5.9,1.26-8.28.1-1.15.19-2.24.33-3.17.2-1.27.43-2.56.65-3.8,1.22-6.77,2.6-14.45-.89-24.18C88.98,6.78,79.35,0,67.3,0c-9.19,0-18.37,4.04-24.57,10.79-5.29,5.77-7.85,13.01-7.21,20.37.05.56.13,1.1.23,1.62-2.25,4.6-2.24,9.87.08,14.73.92,1.93,2.08,3.57,3.24,5.01-12.24,4.23-20.54,9.51-24.64,15.68-3.88,5.83-11.97,25.54-10.76,36.19.29,2.57,1.08,4.66,2.01,6.31-.16,1.01-.28,1.99-.31,2.96-.07,2.2,0,4.38.09,6.49.08,2.24.17,4.56.01,6.16-.11.42-.45,1.36-.69,2-.53,1.44-1.12,3.06-1.54,4.9-1.89,8.31-1.37,16.75-.86,24.9.31,4.87.59,9.48.3,13.49-.11,1.6-.56,3.55-1.04,5.63-1.26,5.52-2.83,12.38-.3,20.22,1.62,5,6.13,10.55,11.65,13.9l-1.51,24.9h86.21l1.09-10.42c.31-2.92.81-5.91,1.42-8.97.59.07,1.18.1,1.79.1,7.62,0,19.67-6.09,21.98-16,.68-2.9.44-6,.02-10.07ZM68.6,37.41l-.18-.34s.1-.03.14-.04c.01.13.02.26.03.38ZM72.11,234.97l-.11-1.85.44.06-.33,1.79Z"/>
      <g id="EyQw8p">
        <g>
          <path class="cls-2" d="M23.84,224.62l1.31-21.59c-.33-1.15-1.52-.19-2.45-.25-3.69-.23-9.16-5.42-10.29-8.91-2.36-7.32,1.35-14.25,1.87-21.44.84-11.7-2.28-25.34.29-36.64.59-2.61,2.16-5.57,2.43-8.06.46-4.18-.16-9.35-.02-13.7.05-1.54,1.05-5.68.84-6.77-.13-.66-2.27-1.26-2.6-4.19-.71-6.25,5.3-23.05,8.88-28.42s13.08-9.18,18.91-11.18c7.79-2.68,5.7-1.89,9.37,3.81,3.15,4.91,7.95,5.74,13.41,6.42-.78-1.61-2.9-1.22-4.36-1.79-2.22-.88-5.16-2.41-6.83-4.11-5.44-5.51.07-9.65-1.32-15.55-1.01-4.33-10.36-9.28-6.78-14.89.62-.97,1.86-.95,1.98-2.2.09-.88-1.24-3.42-1.38-5-1.47-16.93,28.04-27.5,35-8.1,2.97,8.28.92,14.3-.31,22.28-.61,3.99-.39,7.98-1.85,11.83-.44,1.15-1.65,2.13-1.83,3.21-.56,3.3,1.1,6.43,4.1,7.71,6.91,2.95,15.09,1.24,20.74,7.98,4.52,5.38,3.38,10.51,4.37,16.6.56,3.41,4.55,16.65,2.94,18.99-1.8.44-3.63.22-5.74.65-2.99.61-10.86,4.82-12.91,4.35-.35-.08-.31-.91-.55-.94-1.43-.2-6.16,5.02-6.13,6.64.83,2.88,2.97.33,5.18,1.64,1.31.77.92,2.07,2.1,2.68.53-5.98,5.48-14.26,12.45-12.67.68.15,1.23.54,1.7,1.03,3.71,3.94,1.71,19.32,2.32,25.04.43,4.05,2.36,8.63,2.68,12.82.38,4.93-1.06,9.35-1.36,14.13-.51,8.29,1.59,16.41,2.27,24.62.16,1.88.72,6.11.36,7.66-1.18,5.04-14.48,10.4-12.6,4.29.43-1.4,4.62-2.59,4.96-6.47.21-2.4-1.44-7.2-3.21-8.89.01,1.83-1.17,12.65-5.01,8.88-2.19-2.15-.43-12.71.69-15.71.68-1.82,2.03-3.26,2.64-5.12,2.83-8.61-4.08-15.97-5.61-24.08-.97-.14-.74-.04-1.02.58-.6,1.34-1.63,5.92-1.71,7.41-.19,3.46,2.08,8.57,1.27,11.29-.41,1.39-4.32,3.51-5.6,3.51h-12.54c.07.66,2.01.79,2.56.86,3.85.49,7.59.21,11.22,2,5.73,2.81,5.46,7.79,4.84,13.26-1.29,11.41-5.12,22.99-6.32,34.49h-1.37l6.78-36.76c1.07-14.14-12.51-10.32-21.31-12.77-.97-.27-1.71-.38-2.33-1.31,4.82-2.4,10.21-.34,15.26-.69,1.22-.09,3.48-.48,4.64-.83,5.38-1.6,2.32-5.58,1.98-9.43-.44-4.96.64-11.08,3.41-15.26.46-.01,1.81,5.53,2.17,6.49,1.71,4.62,4.92,9.84,5.35,14.71.7,8-5.06,13.48-5.04,22.33,0,1.06.33,4.27,1.63,4.33,2.47-.53,1.25-14.2,5.34-8.06,2.18,3.27,3.3,9.18,1.02,12.59-1.07,1.61-3.23,2.36-3.84,4.13,3.11.43,9.58-2.71,10.37-5.81.48-1.89-.15-6.78-.35-9.01-.53-5.94-2.08-12.32-2.3-18.22-.24-6.77,1.98-13.15,1.38-20.07-.38-4.42-2.36-9.18-2.72-13.69-.41-5.16.4-10.82.01-15.97-.24-3.13-.9-8.21-5.06-7.31-10.38,2.25-9.66,18-9.21,26.15.05.86.39,1.28-.56,1.91-1.59-.05-1.04-8.06-1.14-9.33-.14-1.75-.46-6.75-1.16-7.96-1.3-2.28-7.73,1.32-6.02-5.16.67-2.54,5.5-5.11,6.05-6.26s.77-5.33,1.38-7.28c.46-1.46,6.05-13.67,6.82-13.69,1.07,1.23.81,4.06.7,5.71-.38,6-3.22,11.22-7.3,15.48.51.7.67.68,1.48.59,2.22-.25,5.78-2.48,8.18-3.23,2.67-.84,5.26-1.2,7.92-1.67-.37-6.59-2.33-12.94-3.4-19.46-.87-5.3-.15-9.11-3.93-13.85-6.12-7.67-17.67-4.45-22.87-9.27-1.98-1.84-1.6-3.76-2.68-5.77-6.3,3.55-16.65,1.17-21.87-3.65-5.92,11.53,10.21,15,18.46,15.51v1.36c-5.97.97-16.39.93-20.5-4.33-1.13-1.45-2.94-6.42-4.36-6.64-6.5,2.01-15.9,4.9-20.95,9.61-4.43,4.13-10.08,20.18-10.67,26.26-.32,3.3-.69,5.8,2.6,7.28-1.91,6.82-.05,14.5-.88,21.34-.3,2.42-1.77,5.12-2.38,7.65-2.93,12.2.55,24.08-.29,36.19-.51,7.38-5.11,16.66-1.32,23.62,1.44,2.64,6.74,7.36,9.96,6.22-1.4-4.46-3.35-6.93-2.61-11.96.27-1.81,1.73-6.79,4.25-4.94.85.62.67,2.07,1.55,2.31,2.53-5.54-.97-8.85-2.63-13.55-4.01-11.4,3.07-19.85,4.34-30.11.36-2.88-.45-5.04-.3-7.57.37-6.31,6-17.18,5.44-22.41-.47-4.39-8.4-4.49-11.87-5.24v-1.36s13.25,1.17,13.25,1.17l2.71-16.22c5.69,2.28,2.83,9.86,1.12,14.12-.55,1.38-2.28,3.78-2.47,4.82-1.61,8.64.3,20.59-.94,29.61-.72,2.1-.26,4.24-.51,6.33-.76,6.37-4.35,13.83-.64,19.83,2.07-1.2,4.5-.89,6.8-.8l18.06,4.73c-4.54,4.62-15.08,3.37-20.63,1.03-4.4-1.86-4.27-5.06-6.73,1.24-.72,1.85-2.44,7.01-2.62,8.8-.4,4.03,1.25,8.17-2.37,11.74-1.13,10.53-2.39,21.05-2.29,31.67h-1.37ZM82.2,37c.33-2.57,0-6.37,0-9.12s-2.1-7.63-3.87-9.81c-10.9-13.38-36.65,1.86-28.27,17.33.44.81.88,1.97,2.04,1.83.7-3.29.23-6.97,2.19-9.89,2.55-3.79,6.38-1.84,10.15-2.62,4.56-.94,9.49-8.09,14.81-2.1.51.57,2.03,3.87,2.03,4.35v11.63h.45c-.16-.6.41-1.21.46-1.6ZM74.9,59.57c-3.83,1.37-8.16,1-11.85-.69-2.23-1.02-9.82-6.76-6.65-9.39,1.94-1.61,7.97,3.71,10.38,4.3,5.59,1.37,9.63-1.03,12.14-5.93,3.15-6.14.21-14.02.89-20.78-3.5-10.84-9.8-2.15-15.37-.99-4.03.84-8.04-1.49-9.94,3.74-.26.73-1.97,10.25-1.93,10.79.07,1.02,1.78,4.22,2.14,6.08,1.43,7.24-1.46,10.91,7.43,13.54,2.56.76,9.47,1.84,11.72.81.64-.3,1.19-.67,1.02-1.48ZM53.03,49.54c1.76,1.25-.42-5.61-.57-6.05-.48-1.35-3.08-8.43-4.94-5.5-2.44,3.85,4.02,8.65,5.51,11.55ZM76.55,52.99c-3.22,2.56-7.21,3.13-11.09,1.67-2.2-.83-5.14-3.61-7.4-4.01-.77-.14-.82-.27-1.38.49,4.29,7.72,12.3,9.15,20.5,7.3,1.94-2.59,2.84-6.13,2.73-9.34-1.38,1.04-2.03,2.84-3.37,3.9ZM37.53,106.08c.96-.5,1.34-2.1,1.7-3.08.71-1.92,2.64-8.02.34-9.23-.88-.46-.71.97-.82,1.45-.76,3.53-1.29,7.23-1.22,10.86ZM92.68,111.09c2.64-4.15,4.91-7.75,5.19-12.87.04-.7.54-1.12-.4-1.72-2.39,4.49-5.14,9.2-5.7,14.36l.91.23ZM29.31,179.02c.49-2.08,1.07-4.16,1.82-6.16.39-1.03,2.57-5.56,2.57-5.92,0-.56-.82-1.66-.98-2.5-1.53-7.91,1.48-14.28,2.06-22.13l.91-25.3c-.65,0-.91,1.3-1.11,1.84-3.27,8.42-3.7,13.74-3.94,22.5-.26,9.58-9.01,20.68-4.84,30.93l3.52,6.73ZM43.22,166.71c-2.19-.28-4.82.2-7.07,0-.32,1.77,2.58,3.01,3.98,3.54,4.35,1.65,11.48,2.64,15.91,1.07.65-.23.77.14.63-.96-4.36-.36-9.33-3.13-13.45-3.65ZM25.66,199.54c-.21-2.94,1.05-5.45.91-8.42-.04-.99-.7-6.03-2.04-5.71-2.57,4.08-2.36,10.61,1.13,14.13Z"/>
          <path class="cls-2" d="M59.86,224.62h-1.37l-.23-17.79-7.98,17.79h-1.37l10.26-24.61c.83.55.64,1.21.7,2.02.54,7.28-.45,15.24-.02,22.59Z"/>
        </g>
      </g>
    </g>
  </g>
</svg>